<mxfile host="app.diagrams.net" modified="2023-06-01T08:59:15.675Z" agent="Mozilla/5.0 (X11; Linux x86_64; rv:109.0) Gecko/20100101 Firefox/113.0" etag="UWwZg2h-9sbUViwdPjGr" version="21.3.6" type="github">
  <diagram name="Halaman-1" id="mFcwVF2XpNbR3JAEObpt">
    <mxGraphModel dx="1434" dy="761" grid="1" gridSize="10" guides="1" tooltips="1" connect="1" arrows="1" fold="1" page="1" pageScale="1" pageWidth="827" pageHeight="1169" math="0" shadow="0">
      <root>
        <mxCell id="0" />
        <mxCell id="1" parent="0" />
        <mxCell id="cNw7ihXkvyLhJeWS1LcZ-1" value="" style="rounded=1;whiteSpace=wrap;html=1;" parent="1" vertex="1">
          <mxGeometry x="190" y="250" width="120" height="60" as="geometry" />
        </mxCell>
        <mxCell id="cNw7ihXkvyLhJeWS1LcZ-2" value="" style="ellipse;whiteSpace=wrap;html=1;" parent="1" vertex="1">
          <mxGeometry x="350" y="360" width="120" height="80" as="geometry" />
        </mxCell>
        <mxCell id="cNw7ihXkvyLhJeWS1LcZ-3" value="Who" style="shape=umlActor;verticalLabelPosition=bottom;verticalAlign=top;html=1;" parent="1" vertex="1">
          <mxGeometry x="520" y="230" width="30" height="60" as="geometry" />
        </mxCell>
        <mxCell id="cNw7ihXkvyLhJeWS1LcZ-4" value="&amp;laquo;Annotation&amp;raquo;&lt;br/&gt;&lt;b&gt;Component&lt;/b&gt;" style="html=1;dropTarget=0;whiteSpace=wrap;" parent="1" vertex="1">
          <mxGeometry x="160" y="380" width="180" height="90" as="geometry" />
        </mxCell>
        <mxCell id="cNw7ihXkvyLhJeWS1LcZ-5" value="" style="shape=module;jettyWidth=8;jettyHeight=4;" parent="cNw7ihXkvyLhJeWS1LcZ-4" vertex="1">
          <mxGeometry x="1" width="20" height="20" relative="1" as="geometry">
            <mxPoint x="-27" y="7" as="offset" />
          </mxGeometry>
        </mxCell>
      </root>
    </mxGraphModel>
  </diagram>
</mxfile>
